<svg data-v-423bf9ae="" xmlns="http://www.w3.org/2000/svg" viewBox="0 0 538 104" class="iconLeftSlogan"><!----><!----><!----><g data-v-423bf9ae="" id="bb3b8374-8e3c-4cec-8323-fd5562988a59" fill="black" transform="matrix(5.681818008422852,0,0,5.681818008422852,118.08485412597656,-0.6250010132789612)"><path d="M0.49 10.50L4.62 10.50L4.62 10.09C3.18 10.01 3.14 9.98 3.14 9.20L3.14 5.92L5.10 5.92C6.29 5.92 6.34 6.26 6.47 7.15L6.89 7.15L6.89 4.16L6.47 4.16C6.34 5.05 6.29 5.39 5.10 5.39L3.14 5.39L3.14 1.81C3.14 1.34 3.19 1.30 3.65 1.30L5.04 1.30C6.66 1.30 6.99 1.62 7.18 3.05L7.60 3.05L7.60 0.81L0.49 0.81L0.49 1.22C1.72 1.30 1.75 1.33 1.75 2.11L1.75 9.20C1.75 9.98 1.72 10.01 0.49 10.09ZM9.41 1.34C9.41 1.85 9.76 2.20 10.26 2.20C10.77 2.20 11.12 1.85 11.12 1.34C11.12 0.84 10.77 0.49 10.26 0.49C9.76 0.49 9.41 0.84 9.41 1.34ZM8.57 10.50L11.98 10.50L11.98 10.09C10.99 10.02 10.93 10.00 10.93 9.28L10.93 3.56L10.84 3.47L8.64 3.82L8.64 4.17L9.17 4.24C9.53 4.30 9.62 4.37 9.62 4.87L9.62 9.28C9.62 10.00 9.58 10.02 8.57 10.09ZM12.64 10.50L16.34 10.50L16.34 10.09C15.09 10.02 15.01 10.00 15.01 9.28L15.01 6.01C15.01 4.93 15.48 4.56 15.81 4.56C16.03 4.56 16.27 4.65 16.67 4.87C16.77 4.93 16.88 4.94 16.95 4.94C17.29 4.94 17.60 4.59 17.60 4.16C17.60 3.85 17.40 3.47 16.86 3.47C16.35 3.47 15.93 3.78 15.01 4.59L14.84 3.47L12.71 3.82L12.71 4.17L13.24 4.24C13.61 4.30 13.69 4.37 13.69 4.87L13.69 9.28C13.69 10.00 13.62 10.02 12.64 10.09ZM18.30 8.16L18.44 10.00C18.94 10.44 19.80 10.67 20.62 10.67C22.29 10.67 23.24 9.79 23.24 8.60C23.24 7.36 22.48 6.80 21.04 6.36C20.47 6.17 19.54 5.88 19.54 5.10C19.54 4.37 20.10 3.96 20.80 3.96C21.80 3.96 22.27 4.73 22.37 5.59L22.78 5.59L22.78 3.95C22.32 3.61 21.60 3.47 20.97 3.47C19.46 3.47 18.42 4.19 18.42 5.52C18.42 6.68 19.38 7.20 20.54 7.55C21.17 7.74 22.05 8.06 22.05 9.02C22.05 9.73 21.49 10.18 20.75 10.18C19.61 10.18 18.98 9.35 18.70 8.16ZM24.18 4.20L25.19 4.20L25.19 9.07C25.19 10.50 26.25 10.67 26.74 10.67C27.45 10.67 28.13 10.30 28.53 10.05L28.42 9.76C28.08 9.90 27.78 9.94 27.43 9.94C26.95 9.94 26.50 9.60 26.50 8.54L26.50 4.20L28.31 4.20L28.31 3.64L26.50 3.64L26.50 1.88L26.10 1.88L25.24 3.64L24.18 3.64ZM29.04 10.50L32.35 10.50L32.35 10.09C31.44 10.02 31.11 9.98 31.02 9.39C30.95 8.93 30.93 8.40 30.93 7.66L30.93 2.10L30.95 2.10L34.57 10.33L34.94 10.33L38.60 2.10L38.64 2.10L38.64 9.20C38.64 9.98 38.61 10.01 37.38 10.09L37.38 10.50L41.29 10.50L41.29 10.09C40.07 10.01 40.03 9.98 40.03 9.20L40.03 2.11C40.03 1.33 40.07 1.30 41.29 1.22L41.29 0.81L38.47 0.81C38.00 2.06 37.42 3.29 36.86 4.52L35.18 8.27L35.15 8.27L33.50 4.54C32.96 3.29 32.37 2.06 31.86 0.81L29.02 0.81L29.02 1.22C30.25 1.30 30.28 1.33 30.28 2.11L30.28 7.66C30.28 8.40 30.25 8.93 30.18 9.39C30.10 9.98 29.76 10.04 29.04 10.09ZM42.46 8.68C42.46 9.73 43.16 10.67 44.48 10.67C45.29 10.67 46.12 10.12 46.56 9.83C46.76 10.35 46.98 10.67 47.47 10.67C47.99 10.67 48.59 10.51 49.13 10.25L49.04 9.91C48.85 9.95 48.54 9.98 48.33 9.93C48.08 9.87 47.84 9.60 47.84 8.72L47.84 5.33C47.84 4.52 47.66 3.47 45.54 3.47C43.96 3.47 42.71 4.30 42.71 5.07C42.71 5.52 43.23 5.73 43.50 5.73C43.79 5.73 43.88 5.57 43.95 5.33C44.25 4.30 44.83 3.96 45.39 3.96C45.93 3.96 46.58 4.24 46.58 5.36L46.58 5.95C46.23 6.31 44.87 6.66 43.76 7.01C42.76 7.32 42.46 8.02 42.46 8.68ZM43.88 8.48C43.88 7.83 44.18 7.49 44.97 7.20C45.53 6.99 46.27 6.72 46.58 6.52L46.58 8.50C46.58 9.63 45.71 9.93 45.16 9.93C44.30 9.93 43.88 9.31 43.88 8.48ZM49.55 10.50L53.24 10.50L53.24 10.09C52.00 10.02 51.91 10.00 51.91 9.28L51.91 6.01C51.91 4.93 52.39 4.56 52.71 4.56C52.93 4.56 53.17 4.65 53.58 4.87C53.68 4.93 53.79 4.94 53.86 4.94C54.19 4.94 54.50 4.59 54.50 4.16C54.50 3.85 54.31 3.47 53.76 3.47C53.26 3.47 52.84 3.78 51.91 4.59L51.74 3.47L49.62 3.82L49.62 4.17L50.15 4.24C50.51 4.30 50.60 4.37 50.60 4.87L50.60 9.28C50.60 10.00 50.53 10.02 49.55 10.09ZM54.82 10.50L58.24 10.50L58.24 10.09C57.25 10.02 57.19 10.00 57.19 9.28L57.19 6.94L57.22 6.94C57.79 7.85 58.79 9.07 59.51 9.81C60.03 10.33 60.58 10.50 61.03 10.53L62.08 10.57L62.08 10.18C61.66 10.07 61.31 9.86 60.87 9.42C60.00 8.57 58.91 7.24 58.38 6.48C58.31 6.38 58.28 6.31 58.42 6.16C59.09 5.39 59.54 4.98 60.02 4.63C60.49 4.28 60.84 4.12 61.66 4.03L61.66 3.64L60.21 3.64C59.74 3.64 59.61 3.71 59.33 4.05C58.93 4.54 57.54 6.27 57.22 6.75L57.19 6.75L57.19 0.20L57.09 0.11L54.89 0.46L54.89 0.81L55.43 0.87C55.79 0.91 55.87 0.98 55.87 1.51L55.87 9.28C55.87 10.00 55.83 10.02 54.82 10.09ZM62.57 7.13C62.57 9.34 63.52 10.67 65.80 10.67C67.35 10.67 68.15 9.80 68.53 8.69L68.11 8.47C67.72 9.28 67.19 9.95 66.08 9.95C64.34 9.95 63.99 8.27 64.02 6.82L68.05 6.82C68.35 6.82 68.61 6.75 68.61 6.29C68.61 5.46 68.35 3.47 65.79 3.47C63.60 3.47 62.57 5.03 62.57 7.13ZM64.04 6.29C64.04 5.71 64.25 3.96 65.70 3.96C67.00 3.96 67.16 5.29 67.16 5.84C67.16 6.10 67.07 6.29 66.68 6.29ZM69.51 4.20L70.52 4.20L70.52 9.07C70.52 10.50 71.58 10.67 72.07 10.67C72.79 10.67 73.46 10.30 73.86 10.05L73.75 9.76C73.42 9.90 73.11 9.94 72.76 9.94C72.28 9.94 71.83 9.60 71.83 8.54L71.83 4.20L73.64 4.20L73.64 3.64L71.83 3.64L71.83 1.88L71.43 1.88L70.57 3.64L69.51 3.64Z"></path></g><!----><g data-v-423bf9ae="" id="45c04a81-7305-4aaf-aa47-b6f5754d4f65" transform="matrix(1.0730730295181274,0,0,1.0730730295181274,-2.6536800861358643,-0.9419136643409729)" stroke="none" fill="black"><path d="M65.454 3.129c-.026-.735-.647-1.442-1.385-1.417l-13.348.473c-.738.026-1.307.858-1.281 1.597l.321 9.046 16.017-.569-.324-9.13zM49.952 18.166l16.016-.566 2.452 69.408-16.017.566zM52.745 97.213c.026.73.636 1.096 1.375 1.074l13.348-.475c.738-.026 1.317-.517 1.292-1.252l-.149-4.216-16.016.563.15 4.306zM3 96.743c0 .735.597 1.336 1.335 1.336H17.69c.738 0 1.336-.601 1.336-1.336V39.314H3v57.429zM19.027 13.938c0-.738-.598-1.335-1.336-1.335H4.336c-.738 0-1.336.598-1.336 1.335v9.349h16.027v-9.349zM45.738 24.753c0-.738-.597-1.335-1.335-1.335H25.705c-.738 0-1.335.597-1.335 1.335v9.219h21.369v-9.219zM24.37 44.657v52.086c0 .735.597 1.336 1.335 1.336h18.698c.738 0 1.335-.601 1.335-1.336V44.657H24.37zM81.102 96.926a1.335 1.335 0 0 0 1.513 1.138l13.22-1.879c.73-.104 1.252-.673 1.153-1.408l-8.833-62.25-15.87 2.254 8.817 62.145zM86.09 17.979a1.33 1.33 0 0 0-1.508-1.132l-13.225 1.875c-.73.102-1.252.673-1.148 1.403l1.325 9.362 15.87-2.251-1.314-9.257z"></path></g><!----><g data-v-423bf9ae="" id="5bafb570-2d41-4ac1-8fe8-9b3aa50d6570" fill="black" transform="matrix(1.3142857551574707,0,0,1.3142857551574707,120.46149444580078,52.5217170715332)"><path d="M1.15 6.34L0.31 6.15L0.36 5.89L3.05 5.89L3.03 6.11L1.90 6.32L3.86 13.18L5.90 6.18L6.21 6.14L8.15 13.18L10.36 6.36L9.08 6.13L9.12 5.89L11.74 5.89L11.72 6.14L10.91 6.34L8.22 14.49L7.77 14.57L5.94 7.63L3.92 14.49L3.44 14.57L1.15 6.34ZM20.66 6.33L19.43 6.16L19.45 5.89L22.57 5.89L22.53 6.16L21.38 6.32L21.38 9.95L26.28 9.95L26.28 6.33L25.03 6.16L25.07 5.89L28.18 5.89L28.13 6.16L26.99 6.32L26.99 13.95L28.24 14.08L28.19 14.40L25.09 14.40L25.15 14.11L26.28 13.90L26.28 10.36L21.38 10.36L21.38 13.95L22.65 14.08L22.57 14.40L19.48 14.40L19.52 14.11L20.66 13.90L20.66 6.33ZM37.17 6.36L35.95 6.18L36.00 5.89L42.19 5.89L41.98 8.07L41.67 8.03L41.54 6.24L37.88 6.24L37.88 9.89L40.17 9.89L40.43 8.94L40.80 8.89L40.57 11.55L40.22 11.61L40.11 10.26L37.88 10.26L37.88 14.03L41.73 14.03L42.23 12.19L42.51 12.26L42.31 14.40L35.97 14.40L36.01 14.11L37.17 13.90L37.17 6.36ZM52.04 6.18L52.04 10.11L53.59 10.11L53.59 10.11Q54.28 9.86 54.74 9.28L54.74 9.28L54.74 9.28Q55.19 8.70 55.19 8.02L55.19 8.02L55.19 8.02Q55.19 7.11 54.57 6.63L54.57 6.63L54.57 6.63Q53.96 6.15 52.87 6.15L52.87 6.15L52.04 6.18ZM53.42 14.40L50.22 14.40L50.27 14.11L51.34 13.90L51.34 6.51L50.24 6.37L50.31 6.13L50.31 6.13Q52.13 5.83 53.21 5.83L53.21 5.83L53.21 5.83Q53.98 5.83 54.58 6.05L54.58 6.05L54.58 6.05Q55.19 6.27 55.57 6.73L55.57 6.73L55.57 6.73Q55.95 7.19 55.95 7.83L55.95 7.83L55.95 7.83Q55.95 8.57 55.52 9.14L55.52 9.14L55.52 9.14Q55.09 9.72 54.06 10.23L54.06 10.23L54.06 10.23L55.38 12.19L55.38 12.19Q56.09 13.23 56.43 13.58L56.43 13.58L56.43 13.58Q56.78 13.92 57.16 14.05L57.16 14.05L57.49 14.16L57.45 14.42L57.45 14.42Q57.16 14.52 56.81 14.52L56.81 14.52L56.81 14.52Q56.53 14.52 56.27 14.40L56.27 14.40L56.27 14.40Q56.02 14.28 55.78 14.01L55.78 14.01L55.78 14.01Q55.54 13.75 55.35 13.48L55.35 13.48L55.35 13.48Q55.17 13.22 54.89 12.77L54.89 12.77L53.50 10.49L52.04 10.49L52.04 13.95L53.48 14.08L53.42 14.40ZM66.40 6.36L65.18 6.18L65.23 5.89L71.42 5.89L71.21 8.07L70.90 8.03L70.77 6.24L67.12 6.24L67.12 9.89L69.41 9.89L69.66 8.94L70.03 8.89L69.80 11.55L69.45 11.61L69.34 10.26L67.12 10.26L67.12 14.03L70.96 14.03L71.46 12.19L71.74 12.26L71.54 14.40L65.20 14.40L65.24 14.11L66.40 13.90L66.40 6.36ZM91.26 6.15L91.26 9.75L93.38 9.75L93.38 9.75Q93.84 9.45 94.17 9.01L94.17 9.01L94.17 9.01Q94.51 8.57 94.51 8.02L94.51 8.02L94.51 8.02Q94.51 7.08 93.87 6.59L93.87 6.59L93.87 6.59Q93.23 6.11 92.09 6.11L92.09 6.11L92.09 6.11Q91.44 6.11 91.26 6.15L91.26 6.15ZM91.26 10.08L91.26 14.03L92.94 14.03L92.94 14.03Q93.58 14.03 94.04 13.85L94.04 13.85L94.04 13.85Q94.49 13.68 94.74 13.38L94.74 13.38L94.74 13.38Q94.98 13.08 95.09 12.74L95.09 12.74L95.09 12.74Q95.20 12.41 95.20 12.02L95.20 12.02L95.20 12.02Q95.20 11.68 95.09 11.36L95.09 11.36L95.09 11.36Q94.98 11.04 94.74 10.74L94.74 10.74L94.74 10.74Q94.50 10.45 94.06 10.26L94.06 10.26L94.06 10.26Q93.61 10.08 93.01 10.08L93.01 10.08L91.26 10.08ZM92.26 14.40L89.36 14.40L89.41 14.11L90.57 13.90L90.57 6.51L89.39 6.36L89.46 6.12L89.46 6.12Q89.58 6.10 90.02 6.03L90.02 6.03L90.02 6.03Q90.46 5.96 90.63 5.94L90.63 5.94L90.63 5.94Q90.81 5.91 91.16 5.87L91.16 5.87L91.16 5.87Q91.52 5.83 91.83 5.82L91.83 5.82L91.83 5.82Q92.14 5.80 92.49 5.80L92.49 5.80L92.49 5.80Q93.78 5.80 94.49 6.38L94.49 6.38L94.49 6.38Q95.20 6.96 95.20 7.79L95.20 7.79L95.20 7.79Q95.20 8.98 93.79 9.76L93.79 9.76L93.79 9.80L93.79 9.80Q94.78 9.86 95.35 10.46L95.35 10.46L95.35 10.46Q95.92 11.05 95.92 11.80L95.92 11.80L95.92 11.80Q95.92 12.22 95.82 12.58L95.82 12.58L95.82 12.58Q95.72 12.95 95.45 13.29L95.45 13.29L95.45 13.29Q95.19 13.63 94.79 13.87L94.79 13.87L94.79 13.87Q94.38 14.11 93.74 14.25L93.74 14.25L93.74 14.25Q93.09 14.40 92.26 14.40L92.26 14.40ZM104.41 9.75L104.41 9.75L104.41 9.75Q104.41 11.03 104.77 12.01L104.77 12.01L104.77 12.01Q105.14 13.00 105.85 13.57L105.85 13.57L105.85 13.57Q106.57 14.14 107.55 14.14L107.55 14.14L107.55 14.14Q108.12 14.14 108.62 13.92L108.62 13.92L108.62 13.92Q109.11 13.70 109.45 13.33L109.45 13.33L109.45 13.33Q109.80 12.96 110.04 12.49L110.04 12.49L110.04 12.49Q110.28 12.01 110.40 11.50L110.40 11.50L110.40 11.50Q110.52 10.99 110.52 10.48L110.52 10.48L110.52 10.48Q110.52 8.50 109.67 7.29L109.67 7.29L109.67 7.29Q108.81 6.07 107.37 6.07L107.37 6.07L107.37 6.07Q106.78 6.07 106.29 6.28L106.29 6.28L106.29 6.28Q105.80 6.49 105.46 6.85L105.46 6.85L105.46 6.85Q105.12 7.21 104.88 7.69L104.88 7.69L104.88 7.69Q104.64 8.16 104.52 8.69L104.52 8.69L104.52 8.69Q104.41 9.21 104.41 9.75ZM103.66 10.16L103.66 10.16L103.66 10.16Q103.66 8.16 104.76 6.92L104.76 6.92L104.76 6.92Q105.85 5.69 107.69 5.69L107.69 5.69L107.69 5.69Q108.83 5.69 109.65 6.27L109.65 6.27L109.65 6.27Q110.46 6.86 110.86 7.84L110.86 7.84L110.86 7.84Q111.25 8.83 111.25 10.11L111.25 10.11L111.25 10.11Q111.25 10.75 111.10 11.38L111.10 11.38L111.10 11.38Q110.95 12.00 110.63 12.58L110.63 12.58L110.63 12.58Q110.30 13.17 109.84 13.61L109.84 13.61L109.84 13.61Q109.38 14.05 108.71 14.32L108.71 14.32L108.71 14.32Q108.03 14.58 107.22 14.58L107.22 14.58L107.22 14.58Q106.17 14.58 105.35 13.98L105.35 13.98L105.35 13.98Q104.52 13.37 104.09 12.37L104.09 12.37L104.09 12.37Q103.66 11.37 103.66 10.16ZM119.76 9.75L119.76 9.75L119.76 9.75Q119.76 11.03 120.12 12.01L120.12 12.01L120.12 12.01Q120.48 13.00 121.20 13.57L121.20 13.57L121.20 13.57Q121.92 14.14 122.90 14.14L122.90 14.14L122.90 14.14Q123.47 14.14 123.96 13.92L123.96 13.92L123.96 13.92Q124.46 13.70 124.80 13.33L124.80 13.33L124.80 13.33Q125.15 12.96 125.39 12.49L125.39 12.49L125.39 12.49Q125.63 12.01 125.75 11.50L125.75 11.50L125.75 11.50Q125.86 10.99 125.86 10.48L125.86 10.48L125.86 10.48Q125.86 8.50 125.01 7.29L125.01 7.29L125.01 7.29Q124.16 6.07 122.71 6.07L122.71 6.07L122.71 6.07Q122.13 6.07 121.64 6.28L121.64 6.28L121.64 6.28Q121.15 6.49 120.80 6.85L120.80 6.85L120.80 6.85Q120.46 7.21 120.22 7.69L120.22 7.69L120.22 7.69Q119.98 8.16 119.87 8.69L119.87 8.69L119.87 8.69Q119.76 9.21 119.76 9.75ZM119.01 10.16L119.01 10.16L119.01 10.16Q119.01 8.16 120.10 6.92L120.10 6.92L120.10 6.92Q121.20 5.69 123.04 5.69L123.04 5.69L123.04 5.69Q124.17 5.69 124.99 6.27L124.99 6.27L124.99 6.27Q125.81 6.86 126.21 7.84L126.21 7.84L126.21 7.84Q126.60 8.83 126.60 10.11L126.60 10.11L126.60 10.11Q126.60 10.75 126.45 11.38L126.45 11.38L126.45 11.38Q126.30 12.00 125.98 12.58L125.98 12.58L125.98 12.58Q125.65 13.17 125.19 13.61L125.19 13.61L125.19 13.61Q124.73 14.05 124.05 14.32L124.05 14.32L124.05 14.32Q123.38 14.58 122.57 14.58L122.57 14.58L122.57 14.58Q121.52 14.58 120.69 13.98L120.69 13.98L120.69 13.98Q119.87 13.37 119.44 12.37L119.44 12.37L119.44 12.37Q119.01 11.37 119.01 10.16ZM136.62 10.27L136.60 10.17L136.60 10.17Q137.25 9.47 137.61 9.04L137.61 9.04L139.87 6.33L138.69 6.16L138.71 5.89L141.50 5.89L141.48 6.16L140.43 6.32L137.31 10.10L139.10 12.20L139.10 12.20Q139.90 13.13 140.40 13.54L140.40 13.54L140.40 13.54Q140.90 13.94 141.48 14.03L141.48 14.03L141.85 14.08L141.77 14.38L141.77 14.38Q141.77 14.38 141.64 14.42L141.64 14.42L141.64 14.42Q141.50 14.46 141.46 14.48L141.46 14.48L141.46 14.48Q141.41 14.50 141.34 14.52L141.34 14.52L141.34 14.52Q141.26 14.53 141.20 14.54L141.20 14.54L141.20 14.54Q141.13 14.55 141.05 14.55L141.05 14.55L141.05 14.55Q140.72 14.55 140.42 14.43L140.42 14.43L140.42 14.43Q140.12 14.31 139.81 14.03L139.81 14.03L139.81 14.03Q139.49 13.75 139.28 13.51L139.28 13.51L139.28 13.51Q139.06 13.28 138.69 12.82L138.69 12.82L136.62 10.27ZM135.50 6.33L134.31 6.16L134.35 5.89L137.42 5.89L137.40 6.16L136.23 6.32L136.23 13.95L137.50 14.08L137.43 14.40L134.38 14.40L134.42 14.11L135.50 13.90L135.50 6.33ZM149.57 13.60L149.57 13.60L149.78 11.66L150.10 11.71L150.29 13.21L150.29 13.21Q150.52 13.64 151.05 13.89L151.05 13.89L151.05 13.89Q151.58 14.14 152.18 14.14L152.18 14.14L152.18 14.14Q152.87 14.14 153.34 13.74L153.34 13.74L153.34 13.74Q153.82 13.33 153.82 12.61L153.82 12.61L153.82 12.61Q153.82 12.20 153.61 11.83L153.61 11.83L153.61 11.83Q153.39 11.46 153.05 11.18L153.05 11.18L153.05 11.18Q152.70 10.90 152.28 10.63L152.28 10.63L152.28 10.63Q151.86 10.36 151.44 10.07L151.44 10.07L151.44 10.07Q151.03 9.79 150.68 9.48L150.68 9.48L150.68 9.48Q150.34 9.17 150.12 8.75L150.12 8.75L150.12 8.75Q149.91 8.33 149.91 7.84L149.91 7.84L149.91 7.84Q149.91 6.88 150.60 6.29L150.60 6.29L150.60 6.29Q151.29 5.71 152.17 5.71L152.17 5.71L152.17 5.71Q152.76 5.71 153.30 5.90L153.30 5.90L153.30 5.90Q153.84 6.09 154.17 6.46L154.17 6.46L153.95 8.58L153.63 8.53L153.45 6.87L153.45 6.87Q153.26 6.54 152.84 6.32L152.84 6.32L152.84 6.32Q152.43 6.10 152.00 6.10L152.00 6.10L152.00 6.10Q151.40 6.10 150.99 6.48L150.99 6.48L150.99 6.48Q150.58 6.87 150.58 7.52L150.58 7.52L150.58 7.52Q150.58 7.96 150.80 8.35L150.80 8.35L150.80 8.35Q151.02 8.74 151.37 9.03L151.37 9.03L151.37 9.03Q151.72 9.32 152.15 9.61L152.15 9.61L152.15 9.61Q152.57 9.89 153.00 10.17L153.00 10.17L153.00 10.17Q153.43 10.45 153.78 10.75L153.78 10.75L153.78 10.75Q154.13 11.05 154.35 11.45L154.35 11.45L154.35 11.45Q154.57 11.85 154.57 12.29L154.57 12.29L154.57 12.29Q154.57 13.28 153.82 13.93L153.82 13.93L153.82 13.93Q153.07 14.57 151.83 14.57L151.83 14.57L151.83 14.57Q151.12 14.57 150.51 14.30L150.51 14.30L150.51 14.30Q149.91 14.03 149.57 13.60ZM174.10 6.15L174.10 9.75L176.22 9.75L176.22 9.75Q176.67 9.45 177.01 9.01L177.01 9.01L177.01 9.01Q177.34 8.57 177.34 8.02L177.34 8.02L177.34 8.02Q177.34 7.08 176.71 6.59L176.71 6.59L176.71 6.59Q176.07 6.11 174.93 6.11L174.93 6.11L174.93 6.11Q174.28 6.11 174.10 6.15L174.10 6.15ZM174.10 10.08L174.10 14.03L175.78 14.03L175.78 14.03Q176.42 14.03 176.87 13.85L176.87 13.85L176.87 13.85Q177.33 13.68 177.57 13.38L177.57 13.38L177.57 13.38Q177.82 13.08 177.93 12.74L177.93 12.74L177.93 12.74Q178.04 12.41 178.04 12.02L178.04 12.02L178.04 12.02Q178.04 11.68 177.93 11.36L177.93 11.36L177.93 11.36Q177.82 11.04 177.58 10.74L177.58 10.74L177.58 10.74Q177.34 10.45 176.89 10.26L176.89 10.26L176.89 10.26Q176.45 10.08 175.85 10.08L175.85 10.08L174.10 10.08ZM175.10 14.40L172.20 14.40L172.25 14.11L173.41 13.90L173.41 6.51L172.23 6.36L172.30 6.12L172.30 6.12Q172.42 6.10 172.86 6.03L172.86 6.03L172.86 6.03Q173.30 5.96 173.47 5.94L173.47 5.94L173.47 5.94Q173.65 5.91 174.00 5.87L174.00 5.87L174.00 5.87Q174.36 5.83 174.67 5.82L174.67 5.82L174.67 5.82Q174.98 5.80 175.33 5.80L175.33 5.80L175.33 5.80Q176.61 5.80 177.33 6.38L177.33 6.38L177.33 6.38Q178.04 6.96 178.04 7.79L178.04 7.79L178.04 7.79Q178.04 8.98 176.63 9.76L176.63 9.76L176.63 9.80L176.63 9.80Q177.62 9.86 178.19 10.46L178.19 10.46L178.19 10.46Q178.76 11.05 178.76 11.80L178.76 11.80L178.76 11.80Q178.76 12.22 178.66 12.58L178.66 12.58L178.66 12.58Q178.55 12.95 178.29 13.29L178.29 13.29L178.29 13.29Q178.03 13.63 177.63 13.87L177.63 13.87L177.63 13.87Q177.22 14.11 176.58 14.25L176.58 14.25L176.58 14.25Q175.93 14.40 175.10 14.40L175.10 14.40ZM187.69 6.36L186.47 6.18L186.52 5.89L192.71 5.89L192.50 8.07L192.19 8.03L192.06 6.24L188.41 6.24L188.41 9.89L190.70 9.89L190.95 8.94L191.32 8.89L191.09 11.55L190.74 11.61L190.63 10.26L188.41 10.26L188.41 14.03L192.25 14.03L192.75 12.19L193.03 12.26L192.83 14.40L186.49 14.40L186.53 14.11L187.69 13.90L187.69 6.36ZM206.91 14.40L200.76 14.40L200.79 14.11L201.95 13.90L201.95 6.34L200.77 6.17L200.80 5.90L203.91 5.90L203.88 6.17L202.68 6.32L202.68 14.03L206.30 14.03L206.83 12.09L207.13 12.14L206.91 14.40ZM215.63 9.75L215.63 9.75L215.63 9.75Q215.63 11.03 215.99 12.01L215.99 12.01L215.99 12.01Q216.35 13.00 217.07 13.57L217.07 13.57L217.07 13.57Q217.79 14.14 218.76 14.14L218.76 14.14L218.76 14.14Q219.34 14.14 219.83 13.92L219.83 13.92L219.83 13.92Q220.32 13.70 220.67 13.33L220.67 13.33L220.67 13.33Q221.01 12.96 221.26 12.49L221.26 12.49L221.26 12.49Q221.50 12.01 221.61 11.50L221.61 11.50L221.61 11.50Q221.73 10.99 221.73 10.48L221.73 10.48L221.73 10.48Q221.73 8.50 220.88 7.29L220.88 7.29L220.88 7.29Q220.03 6.07 218.58 6.07L218.58 6.07L218.58 6.07Q218.00 6.07 217.51 6.28L217.51 6.28L217.51 6.28Q217.01 6.49 216.67 6.85L216.67 6.85L216.67 6.85Q216.33 7.21 216.09 7.69L216.09 7.69L216.09 7.69Q215.85 8.16 215.74 8.69L215.74 8.69L215.74 8.69Q215.63 9.21 215.63 9.75ZM214.87 10.16L214.87 10.16L214.87 10.16Q214.87 8.16 215.97 6.92L215.97 6.92L215.97 6.92Q217.07 5.69 218.91 5.69L218.91 5.69L218.91 5.69Q220.04 5.69 220.86 6.27L220.86 6.27L220.86 6.27Q221.68 6.86 222.07 7.84L222.07 7.84L222.07 7.84Q222.47 8.83 222.47 10.11L222.47 10.11L222.47 10.11Q222.47 10.75 222.32 11.38L222.32 11.38L222.32 11.38Q222.17 12.00 221.84 12.58L221.84 12.58L221.84 12.58Q221.52 13.17 221.06 13.61L221.06 13.61L221.06 13.61Q220.60 14.05 219.92 14.32L219.92 14.32L219.92 14.32Q219.24 14.58 218.44 14.58L218.44 14.58L218.44 14.58Q217.38 14.58 216.56 13.98L216.56 13.98L216.56 13.98Q215.74 13.37 215.30 12.37L215.30 12.37L215.30 12.37Q214.87 11.37 214.87 10.16ZM231.44 6.36L230.17 6.14L230.23 5.89L232.30 5.89L237.02 13.17L237.02 6.33L235.77 6.16L235.81 5.89L238.71 5.89L238.66 6.16L237.52 6.32L237.52 14.44L237.15 14.52L231.94 6.65L231.94 13.95L233.20 14.08L233.13 14.40L230.25 14.40L230.30 14.11L231.44 13.90L231.44 6.36ZM246.42 10.27L246.42 10.27L246.42 10.27Q246.42 9.64 246.59 9.00L246.59 9.00L246.59 9.00Q246.76 8.36 247.11 7.78L247.11 7.78L247.11 7.78Q247.46 7.21 247.94 6.75L247.94 6.75L247.94 6.75Q248.42 6.30 249.08 6.04L249.08 6.04L249.08 6.04Q249.75 5.77 250.51 5.77L250.51 5.77L250.51 5.77Q251.25 5.77 251.95 5.94L251.95 5.94L251.95 5.94Q252.66 6.11 253.13 6.47L253.13 6.47L252.92 8.64L252.62 8.61L252.40 6.99L252.40 6.99Q252.14 6.65 251.59 6.41L251.59 6.41L251.59 6.41Q251.04 6.17 250.28 6.17L250.28 6.17L250.28 6.17Q248.88 6.17 248.04 7.27L248.04 7.27L248.04 7.27Q247.20 8.37 247.20 10.07L247.20 10.07L247.20 10.07Q247.20 10.69 247.31 11.25L247.31 11.25L247.31 11.25Q247.42 11.81 247.67 12.34L247.67 12.34L247.67 12.34Q247.93 12.87 248.31 13.25L248.31 13.25L248.31 13.25Q248.68 13.63 249.27 13.86L249.27 13.86L249.27 13.86Q249.86 14.09 250.59 14.09L250.59 14.09L250.59 14.09Q251.65 14.09 252.37 13.59L252.37 13.59L252.38 11.03L250.74 10.86L250.78 10.60L254.06 10.60L254.01 10.86L253.09 11.01L253.09 13.86L253.09 13.86Q252.44 14.25 251.71 14.39L251.71 14.39L251.71 14.39Q250.97 14.53 249.88 14.53L249.88 14.53L249.88 14.53Q249.18 14.53 248.54 14.23L248.54 14.23L248.54 14.23Q247.91 13.93 247.44 13.39L247.44 13.39L247.44 13.39Q246.98 12.85 246.70 12.04L246.70 12.04L246.70 12.04Q246.42 11.23 246.42 10.27Z"></path></g></svg>