<svg data-v-fde0c5aa="" xmlns="http://www.w3.org/2000/svg" viewBox="0 0 300 300" class="font"><!----><defs data-v-fde0c5aa=""><!----></defs><rect data-v-fde0c5aa="" fill="transparent" x="0" y="0" width="300px" height="300px" class="logo-background-square"></rect><defs data-v-fde0c5aa=""><linearGradient data-v-fde0c5aa="" gradientTransform="rotate(25)" id="a8a18277-3951-4c40-b592-5317532bf992" x1="0%" y1="0%" x2="100%" y2="0%"><stop data-v-fde0c5aa="" offset="0%" stop-color="#050922" stop-opacity="1"></stop><stop data-v-fde0c5aa="" offset="100%" stop-color="#6EE6C7" stop-opacity="1"></stop></linearGradient></defs><g data-v-fde0c5aa="" id="a52072f4-e4fb-43e4-8811-d642ac796443" fill="url(#a8a18277-3951-4c40-b592-5317532bf992)" transform="matrix(2.9985005855560303,0,0,2.9985005855560303,38.5307346590892,133.83808093721316)"><path d="M0.49 10.50L4.62 10.50L4.62 10.09C3.18 10.01 3.14 9.98 3.14 9.20L3.14 5.92L5.10 5.92C6.29 5.92 6.34 6.26 6.47 7.15L6.89 7.15L6.89 4.16L6.47 4.16C6.34 5.05 6.29 5.39 5.10 5.39L3.14 5.39L3.14 1.81C3.14 1.34 3.19 1.30 3.65 1.30L5.04 1.30C6.66 1.30 6.99 1.62 7.18 3.05L7.60 3.05L7.60 0.81L0.49 0.81L0.49 1.22C1.72 1.30 1.75 1.33 1.75 2.11L1.75 9.20C1.75 9.98 1.72 10.01 0.49 10.09ZM9.41 1.34C9.41 1.85 9.76 2.20 10.26 2.20C10.77 2.20 11.12 1.85 11.12 1.34C11.12 0.84 10.77 0.49 10.26 0.49C9.76 0.49 9.41 0.84 9.41 1.34ZM8.57 10.50L11.98 10.50L11.98 10.09C10.99 10.02 10.93 10.00 10.93 9.28L10.93 3.56L10.84 3.47L8.64 3.82L8.64 4.17L9.17 4.24C9.53 4.30 9.62 4.37 9.62 4.87L9.62 9.28C9.62 10.00 9.58 10.02 8.57 10.09ZM12.64 10.50L16.34 10.50L16.34 10.09C15.09 10.02 15.01 10.00 15.01 9.28L15.01 6.01C15.01 4.93 15.48 4.56 15.81 4.56C16.03 4.56 16.27 4.65 16.67 4.87C16.77 4.93 16.88 4.94 16.95 4.94C17.29 4.94 17.60 4.59 17.60 4.16C17.60 3.85 17.40 3.47 16.86 3.47C16.35 3.47 15.93 3.78 15.01 4.59L14.84 3.47L12.71 3.82L12.71 4.17L13.24 4.24C13.61 4.30 13.69 4.37 13.69 4.87L13.69 9.28C13.69 10.00 13.62 10.02 12.64 10.09ZM18.30 8.16L18.44 10.00C18.94 10.44 19.80 10.67 20.62 10.67C22.29 10.67 23.24 9.79 23.24 8.60C23.24 7.36 22.48 6.80 21.04 6.36C20.47 6.17 19.54 5.88 19.54 5.10C19.54 4.37 20.10 3.96 20.80 3.96C21.80 3.96 22.27 4.73 22.37 5.59L22.78 5.59L22.78 3.95C22.32 3.61 21.60 3.47 20.97 3.47C19.46 3.47 18.42 4.19 18.42 5.52C18.42 6.68 19.38 7.20 20.54 7.55C21.17 7.74 22.05 8.06 22.05 9.02C22.05 9.73 21.49 10.18 20.75 10.18C19.61 10.18 18.98 9.35 18.70 8.16ZM24.18 4.20L25.19 4.20L25.19 9.07C25.19 10.50 26.25 10.67 26.74 10.67C27.45 10.67 28.13 10.30 28.53 10.05L28.42 9.76C28.08 9.90 27.78 9.94 27.43 9.94C26.95 9.94 26.50 9.60 26.50 8.54L26.50 4.20L28.31 4.20L28.31 3.64L26.50 3.64L26.50 1.88L26.10 1.88L25.24 3.64L24.18 3.64ZM29.04 10.50L32.35 10.50L32.35 10.09C31.44 10.02 31.11 9.98 31.02 9.39C30.95 8.93 30.93 8.40 30.93 7.66L30.93 2.10L30.95 2.10L34.57 10.33L34.94 10.33L38.60 2.10L38.64 2.10L38.64 9.20C38.64 9.98 38.61 10.01 37.38 10.09L37.38 10.50L41.29 10.50L41.29 10.09C40.07 10.01 40.03 9.98 40.03 9.20L40.03 2.11C40.03 1.33 40.07 1.30 41.29 1.22L41.29 0.81L38.47 0.81C38.00 2.06 37.42 3.29 36.86 4.52L35.18 8.27L35.15 8.27L33.50 4.54C32.96 3.29 32.37 2.06 31.86 0.81L29.02 0.81L29.02 1.22C30.25 1.30 30.28 1.33 30.28 2.11L30.28 7.66C30.28 8.40 30.25 8.93 30.18 9.39C30.10 9.98 29.76 10.04 29.04 10.09ZM42.46 8.68C42.46 9.73 43.16 10.67 44.48 10.67C45.29 10.67 46.12 10.12 46.56 9.83C46.76 10.35 46.98 10.67 47.47 10.67C47.99 10.67 48.59 10.51 49.13 10.25L49.04 9.91C48.85 9.95 48.54 9.98 48.33 9.93C48.08 9.87 47.84 9.60 47.84 8.72L47.84 5.33C47.84 4.52 47.66 3.47 45.54 3.47C43.96 3.47 42.71 4.30 42.71 5.07C42.71 5.52 43.23 5.73 43.50 5.73C43.79 5.73 43.88 5.57 43.95 5.33C44.25 4.30 44.83 3.96 45.39 3.96C45.93 3.96 46.58 4.24 46.58 5.36L46.58 5.95C46.23 6.31 44.87 6.66 43.76 7.01C42.76 7.32 42.46 8.02 42.46 8.68ZM43.88 8.48C43.88 7.83 44.18 7.49 44.97 7.20C45.53 6.99 46.27 6.72 46.58 6.52L46.58 8.50C46.58 9.63 45.71 9.93 45.16 9.93C44.30 9.93 43.88 9.31 43.88 8.48ZM49.55 10.50L53.24 10.50L53.24 10.09C52.00 10.02 51.91 10.00 51.91 9.28L51.91 6.01C51.91 4.93 52.39 4.56 52.71 4.56C52.93 4.56 53.17 4.65 53.58 4.87C53.68 4.93 53.79 4.94 53.86 4.94C54.19 4.94 54.50 4.59 54.50 4.16C54.50 3.85 54.31 3.47 53.76 3.47C53.26 3.47 52.84 3.78 51.91 4.59L51.74 3.47L49.62 3.82L49.62 4.17L50.15 4.24C50.51 4.30 50.60 4.37 50.60 4.87L50.60 9.28C50.60 10.00 50.53 10.02 49.55 10.09ZM54.82 10.50L58.24 10.50L58.24 10.09C57.25 10.02 57.19 10.00 57.19 9.28L57.19 6.94L57.22 6.94C57.79 7.85 58.79 9.07 59.51 9.81C60.03 10.33 60.58 10.50 61.03 10.53L62.08 10.57L62.08 10.18C61.66 10.07 61.31 9.86 60.87 9.42C60.00 8.57 58.91 7.24 58.38 6.48C58.31 6.38 58.28 6.31 58.42 6.16C59.09 5.39 59.54 4.98 60.02 4.63C60.49 4.28 60.84 4.12 61.66 4.03L61.66 3.64L60.21 3.64C59.74 3.64 59.61 3.71 59.33 4.05C58.93 4.54 57.54 6.27 57.22 6.75L57.19 6.75L57.19 0.20L57.09 0.11L54.89 0.46L54.89 0.81L55.43 0.87C55.79 0.91 55.87 0.98 55.87 1.51L55.87 9.28C55.87 10.00 55.83 10.02 54.82 10.09ZM62.57 7.13C62.57 9.34 63.52 10.67 65.80 10.67C67.35 10.67 68.15 9.80 68.53 8.69L68.11 8.47C67.72 9.28 67.19 9.95 66.08 9.95C64.34 9.95 63.99 8.27 64.02 6.82L68.05 6.82C68.35 6.82 68.61 6.75 68.61 6.29C68.61 5.46 68.35 3.47 65.79 3.47C63.60 3.47 62.57 5.03 62.57 7.13ZM64.04 6.29C64.04 5.71 64.25 3.96 65.70 3.96C67.00 3.96 67.16 5.29 67.16 5.84C67.16 6.10 67.07 6.29 66.68 6.29ZM69.51 4.20L70.52 4.20L70.52 9.07C70.52 10.50 71.58 10.67 72.07 10.67C72.79 10.67 73.46 10.30 73.86 10.05L73.75 9.76C73.42 9.90 73.11 9.94 72.76 9.94C72.28 9.94 71.83 9.60 71.83 8.54L71.83 4.20L73.64 4.20L73.64 3.64L71.83 3.64L71.83 1.88L71.43 1.88L70.57 3.64L69.51 3.64Z"></path></g><!----><!----></svg>